<?xml version="1.0" encoding="UTF-8" standalone="no"?>
<svg width="334px" height="28px" viewBox="0 0 334 28" version="1.1" xmlns="http://www.w3.org/2000/svg" xmlns:xlink="http://www.w3.org/1999/xlink">
    <!-- Generator: Sketch 47 (45396) - http://www.bohemiancoding.com/sketch -->
    <title>Group</title>
    <desc>Created with Sketch.</desc>
    <defs></defs>
    <g id="Page-1" stroke="none" stroke-width="1" fill="none" fill-rule="evenodd">
        <g id="Main-Page" transform="translate(-110.000000, -28.000000)" fill="#0095A8">
            <g id="Header-Area" transform="translate(84.000000, 27.000000)">
                <g id="Brand-+-Nav" transform="translate(26.000000, 0.000000)">
                    <g id="Group" transform="translate(0.000000, 1.000000)">
                        <path d="M21.4724,5.341 L21.4724,0.549 L0.0004,0.549 L0.0004,5.341 L8.1934,5.341 L8.1934,26.484 L13.2784,26.484 L13.2784,5.341 L21.4724,5.341 Z M42.4324,26.484 L47.9194,26.484 L38.0434,0.549 L32.1904,0.549 L22.2404,26.484 L27.5814,26.484 L29.7394,20.558 L40.2744,20.558 L42.4324,26.484 Z M35.0074,6.146 L38.5914,15.949 L31.4224,15.949 L35.0074,6.146 Z M55.8934,13.498 C55.8934,7.646 59.9904,4.865 63.9774,4.865 C68.0014,4.865 72.0984,7.646 72.0984,13.498 C72.0984,19.351 68.0014,22.131 63.9774,22.131 C59.9904,22.131 55.8934,19.351 55.8934,13.498 L55.8934,13.498 Z M50.6624,13.535 C50.6624,21.875 56.9544,27.033 63.9774,27.033 C71.0374,27.033 77.3294,21.875 77.3294,13.535 C77.3294,5.158 71.0374,0 63.9774,0 C56.9544,0 50.6624,5.158 50.6624,13.535 L50.6624,13.535 Z M100.2284,26.484 L100.2284,16.388 L110.2874,16.388 L110.2874,11.742 L100.1914,11.742 L100.1914,5.341 L111.5314,5.341 L111.5314,0.549 L95.1434,0.549 L95.1434,26.484 L100.2284,26.484 Z M121.4084,13.498 C121.4084,7.646 125.5054,4.865 129.4924,4.865 C133.5164,4.865 137.6124,7.646 137.6124,13.498 C137.6124,19.351 133.5164,22.131 129.4924,22.131 C125.5054,22.131 121.4084,19.351 121.4084,13.498 L121.4084,13.498 Z M116.1774,13.535 C116.1774,21.875 122.4684,27.033 129.4924,27.033 C136.5524,27.033 142.8434,21.875 142.8434,13.535 C142.8434,5.158 136.5524,0 129.4924,0 C122.4684,0 116.1774,5.158 116.1774,13.535 L116.1774,13.535 Z M162.2304,26.484 L167.8644,26.484 L162.3044,15.876 C165.7064,14.888 167.8274,12.145 167.8274,8.523 C167.8274,4.024 164.6084,0.549 159.5604,0.549 L149.4274,0.549 L149.4274,26.484 L154.5124,26.484 L154.5124,16.498 L157.1464,16.498 L162.2304,26.484 Z M154.5124,12.145 L154.5124,4.939 L158.6094,4.939 C161.1704,4.939 162.6694,6.365 162.6694,8.56 C162.6694,10.682 161.1704,12.145 158.6094,12.145 L154.5124,12.145 Z M207.1504,26.484 L207.1504,0.549 L202.0664,0.549 L202.0664,10.974 L190.7634,10.974 L190.7634,0.549 L185.7144,0.549 L185.7144,26.484 L190.7634,26.484 L190.7634,15.73 L202.0664,15.73 L202.0664,26.484 L207.1504,26.484 Z M231.5124,26.484 L231.5124,21.729 L220.3194,21.729 L220.3194,15.73 L230.4514,15.73 L230.4514,11.23 L220.3194,11.23 L220.3194,5.304 L231.5124,5.304 L231.5124,0.549 L215.2714,0.549 L215.2714,26.484 L231.5124,26.484 Z M256.3494,26.484 L261.8364,26.484 L251.9604,0.549 L246.1074,0.549 L236.1574,26.484 L241.4984,26.484 L243.6564,20.558 L254.1914,20.558 L256.3494,26.484 Z M248.9234,6.146 L252.5084,15.949 L245.3394,15.949 L248.9234,6.146 Z M283.9664,26.484 L283.9664,21.656 L272.4074,21.656 L272.4074,0.549 L267.3594,0.549 L267.3594,26.484 L283.9664,26.484 Z M306.5734,5.341 L306.5734,0.549 L285.1014,0.549 L285.1014,5.341 L293.2954,5.341 L293.2954,26.484 L298.3794,26.484 L298.3794,5.341 L306.5734,5.341 Z M333.7514,26.484 L333.7514,0.549 L328.6674,0.549 L328.6674,10.974 L317.3644,10.974 L317.3644,0.549 L312.3164,0.549 L312.3164,26.484 L317.3644,26.484 L317.3644,15.73 L328.6674,15.73 L328.6674,26.484 L333.7514,26.484 Z" id="Fill-1"></path>
                    </g>
                </g>
            </g>
        </g>
    </g>
</svg>