<svg width="63" height="15" viewBox="0 0 63 15" xmlns="http://www.w3.org/2000/svg"><title>Fill 10</title><path d="M16.405 14.326V.412H13.67L8.41 11.736 3.191.412H.414v13.914H2.44V3.493l5.01 10.833h1.88l5.05-10.833v10.833h2.025zm14.008 0V12.54h-6.952V8.282h6.304V6.476h-6.304V2.198h6.952V.412h-8.998v13.914h8.998zm16.554 0V.412h-2.046v10.676L37.531.412h-2.735v13.914h2.046V2.983l7.995 11.343h2.13zm10.124.294c3.006 0 5.323-1.766 5.323-5.043V.412H60.37v9.106c0 2.12-1.19 3.317-3.278 3.317-2.067 0-3.298-1.198-3.298-3.317V.412h-2.025v9.165c0 3.277 2.317 5.043 5.323 5.043z" fill="#5C5C5C" fill-rule="evenodd"/></svg>